<svg xmlns="http://www.w3.org/2000/svg" xml:space="preserve" 
width="30px" height="30px" 
version="1.1" 
style="shape-rendering:geometricPrecision; text-rendering:geometricPrecision; image-rendering:optimizeQuality; fill-rule:evenodd; clip-rule:evenodd"
viewBox="0 0 300 300">
 <g>
  <path class="fill-ic-nav" d="M120.9 154.8c0,-7.9 0.8,-14.5 2.7,-20.6 1.9,-6 4.9,-11.4 9,-16.7 3.3,-4.3 8.1,-8.4 13.9,-11.3 4.9,-2.5 10.5,-4.1 16.7,-4.1 1.3,0 3.5,0.2 5.4,0.4 1.5,0.2 2.9,0.5 3.6,1 2.9,1.6 2.4,4.3 1.9,7.2 -0.1,0.4 -0.2,0.8 -0.2,1.4 -0.5,2.8 -0.8,5.4 -1.2,8.1 -1.7,13.3 -3.6,27.7 -9.8,38 -2.6,4.3 -6.1,8.9 -10.4,12.2 -3.5,2.6 -7.5,4.5 -12,4.8 -0.6,0 -1.1,0.1 -1.5,0.1 -5.5,0 -9.9,-2.2 -13,-5.6 -3,-3.4 -4.7,-8 -5.1,-13.1 0,-0.6 0,-1.2 0,-1.8zm-86.4 -3.7c0,58.6 43,107.5 102.4,107.5 10.8,0 19.9,-0.3 28.7,-1.4 8.8,-1.1 17.3,-3.1 26.9,-6.3l0.7 -0.2c2,-0.7 3.6,-1.2 4.9,-2.4 1.8,-1.6 2.6,-3.7 2.6,-5.8 0,-1.1 -0.2,-2.3 -0.6,-3.4 -0.4,-1.1 -1,-2.1 -1.8,-3 -1.7,-1.9 -4.1,-3.2 -6.9,-3.2 -1.1,0 -3.4,0.6 -6.7,1.5 -72,18.9 -132.7,-16.3 -125.9,-97.5 3,-36.7 21,-69.5 54.5,-86.8 62.3,-32.3 134.1,4.5 129.1,78.7 -0.9,14.2 -4.7,28 -11.9,37.6 -2.6,3.4 -5.6,6.9 -9.3,9.4 -3.7,2.7 -8,4.5 -12.9,4.5 -9.5,0 -11.9,-8.2 -11.9,-17.2 0,-5.7 1,-11.8 1.7,-16.2 0.2,-1.1 0.3,-2 0.5,-3 0.3,-2.4 0.7,-4.8 1.2,-7.3 0.5,-3 1,-6 1.4,-8.8l3.9 -24.3 0 0c0.1,-0.4 0.2,-1 0.3,-1.7 0.4,-2.1 1,-5.1 1,-6.7 0,-3.1 -1.1,-6 -2.9,-8.4 -2,-2.6 -4.7,-4.6 -7.5,-5.5 -3,-1 -6.6,-1.6 -10,-2.2l-0.7 -0.1c-2.1,-0.3 -4,-0.6 -5.9,-0.8 -2,-0.2 -4,-0.3 -6.3,-0.3 -1.2,0 -2,-0.1 -2.7,-0.2 -0.9,-0.2 -1.8,-0.3 -3,-0.1 -1.7,0.3 -3,0.3 -4.5,0.3 -0.6,0 -1.3,0 -2,0l0 0c-5.5,0.1 -10.9,1.2 -16.1,2.8 -5.2,1.6 -10.3,3.7 -15.1,6.1 -5.4,2.7 -10.3,6.2 -14.7,10.3 -4.9,4.5 -9.3,9.6 -13,15l-4.7 8.2c-1.4,3 -2.8,6.2 -3.9,9.6 -1.2,3.4 -2.2,7 -2.9,10.4 -1.8,8.5 -2.2,18.6 -0.5,27.9 1.4,8 4.3,15.3 9.1,20.4 5.2,5.6 11.7,9.2 18.8,10.9 7.2,1.7 15,1.4 22.5,-1.1 3.3,-1.1 6.8,-2.6 10.1,-4.4 2.6,-1.4 5,-3.1 6.9,-5 0.7,-0.7 1.5,-1.5 2.2,-2.2 2.3,-2.2 4.5,-4.3 6.5,-7.1 0.3,-0.4 0.7,-1 1.1,-1.7 1,-1.5 2,-3.2 3.1,-4.1l1.5 -1 0.7 1.6c0.6,1.1 0.9,2.8 1.2,4.6 0.4,2.1 0.8,4.6 1.8,6.5 1.1,2.2 1.7,3.4 2.4,4.4 0.7,1 1.5,1.9 3.1,3.5 4.4,4.4 10.7,6.4 17.6,6.8 8.7,0.5 18.1,-1.5 25.2,-4.4l6.3 -3 0 0c1.9,-0.9 4.1,-2.4 6.3,-4 2.5,-1.8 4.8,-3.8 6.5,-5.5 14.6,-14.6 20.9,-36.2 22.3,-56.1 3.4,-47.8 -23.4,-87.9 -68.9,-101.8 -31.8,-9.8 -75.1,-3.6 -103.8,15.1 -37.4,24.3 -58,66.6 -58,110.6z"/>
 </g>
</svg>
