<svg xmlns="http://www.w3.org/2000/svg" 
xml:space="preserve" 
width="30px" height="30px" version="1.1" 
style="shape-rendering:geometricPrecision; text-rendering:geometricPrecision; image-rendering:optimizeQuality; fill-rule:evenodd; clip-rule:evenodd"
viewBox="0 0 300 300">
 <g>
   <path class="fill-ic-nav" d="M50.8 130.2l0 110.6c0,5.9 4.7,7.4 9.9,7.4l60 0c12.2,0 9.5,-7.8 9.5,-20.3 0,-10.1 0,-20.2 0,-30.2 0,-10.5 -1.8,-25.9 4.5,-32.7 1,-1 2.8,-2.8 3.8,-3.6 2.6,-2 7.4,-3.8 11.5,-3.8 8.5,0 15.1,5.6 17.9,11.7 3,6.7 1.9,18.8 1.9,28.4l0 44.6c0.4,4.4 4.6,5.9 9.5,5.9l60 0c5.1,0 9.9,-1.5 9.9,-7.4l0 -110.6c0,-2.1 -0.7,-3.9 -1.9,-5.1 -4.5,-5 -11.5,-0.8 -11.5,3.6l0 105.6 -52.6 0 0 -56c0,-4.9 -1.1,-10.7 -2.8,-14 -0.9,-2 -1.7,-3.8 -2.9,-5.5 -0.8,-1.2 -1,-1.3 -1.8,-2.2 -19.4,-24.4 -58.9,-10.2 -58.9,20.7l0 57 -52.6 0 0 -105.6c0,-6.8 -13.4,-9 -13.4,1.5z"/>
   <path class="fill-ic-nav" d="M23.1 115.3c0,5.3 2.2,7.5 7.4,7.5 2.9,0 19.7,-13.2 22.7,-15.5l81.9 -59.9c5,-3.5 9.8,-7.5 14.9,-10.9 9.7,6.5 26.2,19.3 37,27l70.7 51.8c4.2,3 12,11 17.2,5.9 1.9,-1.9 2,-3.5 2,-5.9 0,-3.9 -9.5,-9.5 -14.2,-13l-103.1 -75.4c-9.5,-6.9 -9.3,-7.4 -18.9,-0.2l-27.5 20.1c-1.5,1.1 -2.6,1.7 -4.1,2.9l-51.8 38c-1.4,1 -2.6,1.8 -4,2.9l-23.7 17.4c-2.2,1.6 -6.5,3.9 -6.5,7.3z"/>
  </g>
</svg>
