<svg xmlns="http://www.w3.org/2000/svg" 
xml:space="preserve" 
width="30px" height="30px" version="1.1" 
style="shape-rendering:geometricPrecision; text-rendering:geometricPrecision; image-rendering:optimizeQuality; fill-rule:evenodd; clip-rule:evenodd"
viewBox="0 0 300 300">
 <g>
  <path class="fill-ic-nav" d="M154.5 163.4c0,-6.7 -9,-6.7 -9,0 0,5.4 9,5.4 9,0zm67 62.5l0 -97.3c0,-5.6 -2.9,-8.5 -8.5,-8.5l-126 0c-5.5,0 -8.5,3 -8.5,8.5l0 97.3c0,5.5 3,8.5 8.5,8.5l126 0c5.5,0 8.5,-3 8.5,-8.5zm-28.6 -146.9c0,-17.6 -9.1,-33.6 -25,-40.7 -11.9,-5.2 -23.9,-5.2 -35.8,0 -4.4,2 -9.6,5.7 -12.8,9.1 -8,8.1 -12.2,19.6 -12.2,31.6l0 26.8 85.8 0 0 -26.8zm14.3 -4.5l0 31.3 8.9 0c9.6,0 19.7,10.1 19.7,19.6l0 103.7c0,4.6 -3,10.3 -6.2,13.5 -0.5,0.5 -2.1,1.7 -2.7,2.2 -2.7,2 -7.1,3.9 -10.8,3.9l-132.2 0c-9.6,0 -19.7,-10.1 -19.7,-19.6l0 -103.7c0,-9.5 10.1,-19.6 19.7,-19.6l8.9 0 0 -31.3c0,-28 26.5,-54.5 54.5,-54.5 11.8,0 16.9,0.8 27.3,5.4 17.9,8 32.6,29.1 32.6,49.1zm-38 88.5c0,4.6 -1.6,8.4 -3.6,11.1 -2.6,3.4 -4.6,4.7 -8.4,6.7 0,6.1 -0.1,12.2 0,18.3 0,3.3 0.8,11.7 -7.2,11.7 -2.9,0 -4.6,-1.4 -5.9,-3.1 -1.7,-2.3 -1.2,-4.4 -1.2,-8.1 0,-6.3 0,-12.5 0,-18.8 -22.1,-11.6 -10.8,-37 7.1,-37 10.5,0 19.2,8.7 19.2,19.2z"/>
 </g>
</svg>
